<?xml version="1.0" encoding="iso-8859-1"?>
<!-- Generator: Adobe Illustrator 19.0.0, SVG Export Plug-In . SVG Version: 6.00 Build 0)  -->
<svg version="1.1" id="Layer_1" xmlns="http://www.w3.org/2000/svg" xmlns:xlink="http://www.w3.org/1999/xlink" x="0px" y="0px"
	 viewBox="0 0 512 512" style="enable-background:new 0 0 512 512;" xml:space="preserve">
<circle style="fill:#FF873D;" cx="256" cy="255.977" r="255.977"/>
<path style="fill:#E37936;" d="M511.977,257.831C510.975,398.379,396.752,512,256.003,512c-9.277,0-18.502-0.501-27.528-1.454
	L112.697,396.022l282.651-251.01L511.977,257.831z"/>
<path style="fill:#FFD630;" d="M112.697,182.416h286.611v160.405l-53.151,53.151H112.647V182.416H112.697z"/>
<path style="fill:#71B84F;" d="M112.697,182.416h88.4v213.554h-88.4C112.697,395.971,112.697,182.416,112.697,182.416z"/>
<g>
	<path style="fill:#E6E6E7;" d="M112.697,182.416h286.661v-24.219c0-13.287-10.881-24.219-24.219-24.219H136.915
		c-13.287,0-24.219,10.881-24.219,24.219L112.697,182.416L112.697,182.416z M168.354,141.451c9.277,0,16.797,7.522,16.797,16.797
		c0,9.277-7.522,16.797-16.797,16.797c-9.277,0-16.797-7.522-16.797-16.797C151.557,148.972,159.078,141.451,168.354,141.451z
		 M343.701,141.451c9.277,0,16.797,7.522,16.797,16.797c0,9.277-7.522,16.797-16.797,16.797s-16.797-7.522-16.797-16.797
		C326.904,148.972,334.424,141.451,343.701,141.451z"/>
	<path style="fill:#E6E6E7;" d="M346.207,342.821h53.151l-53.151,53.151V342.821z"/>
</g>
<path style="fill:#71B84F;" d="M219.75,200.066h22.514c1.755,0,3.209,1.955,3.209,4.363v23.667c0,2.406-1.454,4.363-3.209,4.363
	H219.75c-1.755,0-3.209-1.955-3.209-4.363v-23.667C216.541,202.022,217.995,200.066,219.75,200.066z M346.007,297.643h22.514
	c1.755,0,3.209,1.955,3.209,4.363v23.667c0,2.406-1.454,4.363-3.209,4.363h-22.514c-1.755,0-3.209-1.955-3.209-4.363v-23.667
	C342.798,299.598,344.252,297.643,346.007,297.643z M303.938,297.643h22.464c1.755,0,3.209,1.955,3.209,4.363v23.667
	c0,2.406-1.454,4.363-3.209,4.363h-22.464c-1.755,0-3.209-1.955-3.209-4.363v-23.667
	C300.73,299.598,302.183,297.643,303.938,297.643z M261.869,297.643h22.464c1.755,0,3.209,1.955,3.209,4.363v23.667
	c0,2.406-1.454,4.363-3.209,4.363h-22.464c-1.755,0-3.209-1.955-3.209-4.363v-23.667
	C258.66,299.598,260.115,297.643,261.869,297.643z M219.8,297.643h22.514c1.755,0,3.209,1.955,3.209,4.363v23.667
	c0,2.406-1.454,4.363-3.209,4.363H219.8c-1.755,0-3.209-1.955-3.209-4.363v-23.667C216.591,299.598,218.045,297.643,219.8,297.643z
	 M346.057,248.855h22.514c1.755,0,3.209,1.955,3.209,4.363v23.667c0,2.406-1.454,4.363-3.209,4.363h-22.514
	c-1.755,0-3.209-1.955-3.209-4.363v-23.667C342.848,250.81,344.302,248.855,346.057,248.855z M303.989,248.855h22.464
	c1.755,0,3.209,1.955,3.209,4.363v23.667c0,2.406-1.454,4.363-3.209,4.363h-22.464c-1.755,0-3.209-1.955-3.209-4.363v-23.667
	C300.78,250.81,302.233,248.855,303.989,248.855z M261.92,248.855h22.464c1.755,0,3.209,1.955,3.209,4.363v23.667
	c0,2.406-1.454,4.363-3.209,4.363H261.92c-1.755,0-3.209-1.955-3.209-4.363v-23.667C258.71,250.81,260.165,248.855,261.92,248.855z
	 M219.85,248.855h22.514c1.755,0,3.209,1.955,3.209,4.363v23.667c0,2.406-1.454,4.363-3.209,4.363H219.85
	c-1.755,0-3.209-1.955-3.209-4.363v-23.667C216.641,250.81,218.095,248.855,219.85,248.855z M346.107,200.066h22.514
	c1.755,0,3.209,1.955,3.209,4.363v23.667c0,2.406-1.454,4.363-3.209,4.363h-22.514c-1.755,0-3.209-1.955-3.209-4.363v-23.667
	C342.898,202.022,344.352,200.066,346.107,200.066z M304.039,200.066h22.464c1.755,0,3.209,1.955,3.209,4.363v23.667
	c0,2.406-1.454,4.363-3.209,4.363h-22.464c-1.755,0-3.209-1.955-3.209-4.363v-23.667
	C300.83,202.022,302.283,200.066,304.039,200.066z M261.97,200.066h22.464c1.755,0,3.209,1.955,3.209,4.363v23.667
	c0,2.406-1.454,4.363-3.209,4.363H261.97c-1.755,0-3.209-1.955-3.209-4.363v-23.667C258.761,202.022,260.215,200.066,261.97,200.066
	z"/>
<path style="fill:#F5F5F6;" d="M177.38,330.536h-23.617v-89.303c-8.624,8.073-18.754,14.09-30.487,17.951v-21.511
	c6.168-2.005,12.887-5.817,20.056-11.482c7.22-5.615,12.184-12.184,14.892-19.706h19.154v124.051H177.38z"/>
<path style="fill:#FFDA45;" d="M167.05,114.775L167.05,114.775c4.713,0,8.524,3.81,8.524,8.524v23.566
	c0,4.713-3.81,8.524-8.524,8.524l0,0c-4.713,0-8.524-3.81-8.524-8.524v-23.566C158.526,118.586,162.337,114.775,167.05,114.775z"/>
<path style="fill:#FFCB30;" d="M167.05,114.775L167.05,114.775c4.713,0,8.524,3.81,8.524,8.524v23.566
	c0,4.713-3.81,8.524-8.524,8.524l0,0v-40.665V114.775z"/>
<path style="fill:#FFDA45;" d="M345.005,114.775L345.005,114.775c4.713,0,8.524,3.81,8.524,8.524v23.566
	c0,4.713-3.81,8.524-8.524,8.524l0,0c-4.713,0-8.524-3.81-8.524-8.524v-23.566C336.48,118.586,340.291,114.775,345.005,114.775z"/>
<path style="fill:#FFCB30;" d="M345.005,114.775L345.005,114.775c4.713,0,8.524,3.81,8.524,8.524v23.566
	c0,4.713-3.81,8.524-8.524,8.524l0,0v-40.665V114.775z"/>
<g>
</g>
<g>
</g>
<g>
</g>
<g>
</g>
<g>
</g>
<g>
</g>
<g>
</g>
<g>
</g>
<g>
</g>
<g>
</g>
<g>
</g>
<g>
</g>
<g>
</g>
<g>
</g>
<g>
</g>
</svg>
